<?xml version="1.0" encoding="UTF-8" standalone="no"?>
<!-- Created with Inkscape (http://www.inkscape.org/) -->

<svg
   xmlns:dc="http://purl.org/dc/elements/1.1/"
   xmlns:cc="http://creativecommons.org/ns#"
   xmlns:rdf="http://www.w3.org/1999/02/22-rdf-syntax-ns#"
   xmlns:svg="http://www.w3.org/2000/svg"
   xmlns="http://www.w3.org/2000/svg"
   xmlns:sodipodi="http://sodipodi.sourceforge.net/DTD/sodipodi-0.dtd"
   xmlns:inkscape="http://www.inkscape.org/namespaces/inkscape"
   width="210mm"
   height="297mm"
   viewBox="0 0 210 297"
   version="1.1"
   id="svg8"
   inkscape:version="0.92.4 (5da689c313, 2019-01-14)"
   sodipodi:docname="uni project.svg">
  <defs
     id="defs2" />
  <sodipodi:namedview
     id="base"
     pagecolor="#ffffff"
     bordercolor="#666666"
     borderopacity="1.0"
     inkscape:pageopacity="0.0"
     inkscape:pageshadow="2"
     inkscape:zoom="0.5"
     inkscape:cx="-71.738094"
     inkscape:cy="723.4787"
     inkscape:document-units="mm"
     inkscape:current-layer="layer1"
     showgrid="false"
     inkscape:window-width="1366"
     inkscape:window-height="705"
     inkscape:window-x="-8"
     inkscape:window-y="-8"
     inkscape:window-maximized="1" />
  <metadata
     id="metadata5">
    <rdf:RDF>
      <cc:Work
         rdf:about="">
        <dc:format>image/svg+xml</dc:format>
        <dc:type
           rdf:resource="http://purl.org/dc/dcmitype/StillImage" />
        <dc:title></dc:title>
      </cc:Work>
    </rdf:RDF>
  </metadata>
  <g
     inkscape:label="Layer 1"
     inkscape:groupmode="layer"
     id="layer1">
    <ellipse
       style="opacity:1;fill:#706462;fill-opacity:1;stroke:none;stroke-width:0.75947267;stroke-miterlimit:4;stroke-dasharray:none;stroke-opacity:1"
       id="path4759"
       cx="-82.232178"
       cy="67.148308"
       rx="49.569836"
       ry="73.807228" />
    <g
       id="g4770"
       transform="translate(-154.65267,4.5543454)">
      <path
         sodipodi:nodetypes="ccccccccc"
         inkscape:connector-curvature="0"
         id="path4565"
         d="m 54.75437,115.13051 c -0.643073,-0.14389 -1.159675,-0.42959 -1.286235,-1.1526 V 66.287002 c 0.0033,-0.890642 0.532389,-1.173355 1.244473,-1.244473 h 32.783645 c 1.225844,0.01833 1.201681,0.661658 1.262499,1.262499 v 47.806522 l -5.573585,1.00226 z"
         style="fill:#ffffff;fill-opacity:1;stroke:none;stroke-width:0.26458332px;stroke-linecap:butt;stroke-linejoin:miter;stroke-opacity:1" />
      <rect
         ry="0.053639766"
         y="83.986771"
         x="56.367767"
         height="0.32814941"
         width="29.308794"
         id="rect4586"
         style="opacity:1;fill:#f36363;fill-opacity:1;stroke:none;stroke-width:0.44009817;stroke-miterlimit:4;stroke-dasharray:none;stroke-opacity:1" />
      <rect
         ry="0.053639766"
         y="78.183464"
         x="56.403412"
         height="0.32814941"
         width="29.308796"
         id="rect4586-4"
         style="opacity:1;fill:#f36363;fill-opacity:1;stroke:none;stroke-width:0.4400982;stroke-miterlimit:4;stroke-dasharray:none;stroke-opacity:1" />
      <rect
         ry="0.053639766"
         y="72.437172"
         x="56.403412"
         height="0.32814941"
         width="29.308796"
         id="rect4586-4-3"
         style="opacity:1;fill:#f36363;fill-opacity:1;stroke:none;stroke-width:0.44009823;stroke-miterlimit:4;stroke-dasharray:none;stroke-opacity:1" />
      <rect
         ry="0.053639766"
         y="101.28254"
         x="56.369698"
         height="0.32814941"
         width="29.308796"
         id="rect4586-2"
         style="opacity:1;fill:#f36363;fill-opacity:1;stroke:none;stroke-width:0.4400982;stroke-miterlimit:4;stroke-dasharray:none;stroke-opacity:1" />
      <rect
         ry="0.053639766"
         y="95.479233"
         x="56.405342"
         height="0.32814941"
         width="29.308796"
         id="rect4586-4-6"
         style="opacity:1;fill:#f36363;fill-opacity:1;stroke:none;stroke-width:0.44009823;stroke-miterlimit:4;stroke-dasharray:none;stroke-opacity:1" />
      <rect
         ry="0.053639766"
         y="89.732941"
         x="56.405346"
         height="0.32814941"
         width="29.308796"
         id="rect4586-4-3-9"
         style="opacity:1;fill:#f36363;fill-opacity:1;stroke:none;stroke-width:0.44009823;stroke-miterlimit:4;stroke-dasharray:none;stroke-opacity:1" />
      <rect
         ry="0.053639766"
         y="106.99317"
         x="56.443573"
         height="0.32814941"
         width="29.308796"
         id="rect4586-5"
         style="opacity:1;fill:#f36363;fill-opacity:1;stroke:none;stroke-width:0.4400982;stroke-miterlimit:4;stroke-dasharray:none;stroke-opacity:1" />
      <path
         inkscape:connector-curvature="0"
         id="path4573"
         d="m 82.945774,117.15328 h 10.654202 v -9.09505 h 8.291854 V 96.648071 H 93.576354 V 87.647515 H 82.874903 v 9.000556 h -8.3391 V 108.1291 h 8.409971 z"
         style="fill:#00f67d;fill-opacity:1;stroke:none;stroke-width:0.26458332px;stroke-linecap:butt;stroke-linejoin:miter;stroke-opacity:1" />
    </g>
    <g
       id="g4837"
       transform="translate(-129.07138,-4.088234)">
      <path
         sodipodi:nodetypes="cccccccc"
         inkscape:connector-curvature="0"
         id="path4783"
         d="m 19.565119,63.094618 c -0.05296,1.842276 0.673224,3.115182 2.409138,3.650207 l 51.248931,0.365022 c 2.283678,-0.214428 3.386156,-1.391791 3.431196,-3.431196 L 76.362369,33.527925 48.10975,13.670791 19.857136,33.381918 Z"
         style="fill:#ffffff;fill-opacity:1;stroke:#000000;stroke-width:0.5;stroke-linecap:butt;stroke-linejoin:miter;stroke-miterlimit:4;stroke-dasharray:none;stroke-opacity:1" />
      <path
         sodipodi:nodetypes="ccc"
         inkscape:connector-curvature="0"
         id="path4785"
         d="M 19.857136,33.381918 42.415425,49.807857 23.609828,62.742883"
         style="fill:none;stroke:#000000;stroke-width:0.5;stroke-linecap:butt;stroke-linejoin:miter;stroke-miterlimit:4;stroke-dasharray:none;stroke-opacity:1" />
      <path
         inkscape:connector-curvature="0"
         id="path4787"
         d="m 42.415425,49.807857 5.58482,-3.704961 5.32502,3.732173 23.037104,-16.307144"
         style="fill:none;stroke:#000000;stroke-width:0.5;stroke-linecap:butt;stroke-linejoin:miter;stroke-miterlimit:4;stroke-dasharray:none;stroke-opacity:1" />
      <path
         inkscape:connector-curvature="0"
         id="path4789"
         d="M 53.325265,49.835069 72.425313,62.843748"
         style="fill:none;stroke:#000000;stroke-width:0.5;stroke-linecap:butt;stroke-linejoin:miter;stroke-miterlimit:4;stroke-dasharray:none;stroke-opacity:1" />
    </g>
    <g
       id="g5155"
       transform="translate(136.4991,150.83945)">
      <path
         sodipodi:nodetypes="ccccccc"
         inkscape:connector-curvature="0"
         id="path4908"
         d="m -102.46137,6.479878 c -1.59254,-0.253369 -2.62653,-1.094837 -2.7924,-2.79241 v -25.113435 h 46.705788 V 3.975052 c -0.11036,1.293036 -0.70134,2.277103 -2.49075,2.49075 z"
         style="fill:#ffffff;fill-opacity:1;stroke:#000000;stroke-width:0.26458332px;stroke-linecap:butt;stroke-linejoin:miter;stroke-opacity:1" />
      <path
         sodipodi:nodetypes="ccccccccccccccccccc"
         inkscape:connector-curvature="0"
         id="path4921"
         d="m -105.18823,-23.42319 v -5.31704 c 0.17461,-1.870093 1.20937,-2.326454 2.45848,-2.458487 h 1.7616 v 5.168627 h 7.381906 v -5.149267 h 7.988466 v 5.20089 h 7.420626 v -5.226703 h 8.040087 v 5.226703 h 7.369005 v -5.239607 h 1.987437 c 1.330987,0.142852 1.955819,1.054627 2.193925,2.387505 v 5.355756 z"
         style="fill:#d24a4a;fill-opacity:1;stroke:#000000;stroke-width:0.26499999;stroke-linecap:butt;stroke-linejoin:miter;stroke-miterlimit:4;stroke-dasharray:none;stroke-opacity:1" />
      <path
         inkscape:connector-curvature="0"
         id="path4934"
         d="m -83.552266,-28.056242 h 3.394128 v -6.639848 h -3.426391 z"
         style="fill:#000000;fill-opacity:1;stroke:#000000;stroke-width:0.26458332px;stroke-linecap:butt;stroke-linejoin:miter;stroke-opacity:1" />
      <path
         inkscape:connector-curvature="0"
         id="path4936"
         d="m -95.534964,-28.049789 h -3.51028 v -6.659206 h 3.51028 z"
         style="fill:#000000;fill-opacity:1;stroke:#000000;stroke-width:0.26458332px;stroke-linecap:butt;stroke-linejoin:miter;stroke-opacity:1" />
      <path
         inkscape:connector-curvature="0"
         id="path4938"
         d="m -68.123816,-28.082052 h 3.432847 v -6.62049 h -3.445754 z"
         style="fill:#000000;fill-opacity:1;stroke:#000000;stroke-width:0.26458332px;stroke-linecap:butt;stroke-linejoin:miter;stroke-opacity:1" />
      <path
         inkscape:connector-curvature="0"
         id="path4934-7"
         d="m -89.19999,-12.957689 h 5.188814 v -5.193312 h -5.238136 z"
         style="fill:#ffffff;fill-opacity:1;stroke:#000000;stroke-width:0.28931805px;stroke-linecap:butt;stroke-linejoin:miter;stroke-opacity:1" />
      <path
         inkscape:connector-curvature="0"
         id="path4934-7-7"
         d="m -89.199269,-5.352915 h 5.188814 v -5.193312 h -5.238136 z"
         style="fill:#ffffff;fill-opacity:1;stroke:#000000;stroke-width:0.28931805px;stroke-linecap:butt;stroke-linejoin:miter;stroke-opacity:1" />
      <path
         inkscape:connector-curvature="0"
         id="path4934-7-7-3"
         d="m -89.302512,2.261293 h 5.188814 v -5.193312 h -5.238136 z"
         style="fill:#ffffff;fill-opacity:1;stroke:#000000;stroke-width:0.28931805px;stroke-linecap:butt;stroke-linejoin:miter;stroke-opacity:1" />
      <path
         inkscape:connector-curvature="0"
         id="path4934-7-0"
         d="m -79.727398,-13.014027 h 5.188814 v -5.193312 h -5.238136 z"
         style="fill:#ffffff;fill-opacity:1;stroke:#000000;stroke-width:0.28931805px;stroke-linecap:butt;stroke-linejoin:miter;stroke-opacity:1" />
      <path
         inkscape:connector-curvature="0"
         id="path4934-7-7-5"
         d="m -79.726677,-5.409253 h 5.188814 v -5.193312 h -5.238136 z"
         style="fill:#ffffff;fill-opacity:1;stroke:#000000;stroke-width:0.28931805px;stroke-linecap:butt;stroke-linejoin:miter;stroke-opacity:1" />
      <path
         inkscape:connector-curvature="0"
         id="path4934-7-7-3-4"
         d="m -79.82992,2.204955 h 5.188814 v -5.193312 h -5.238136 z"
         style="fill:#ffffff;fill-opacity:1;stroke:#000000;stroke-width:0.28931805px;stroke-linecap:butt;stroke-linejoin:miter;stroke-opacity:1" />
      <path
         inkscape:connector-curvature="0"
         id="path4934-7-0-0"
         d="m -70.254447,-13.052744 h 5.188814 v -5.193312 h -5.238136 z"
         style="fill:#ffffff;fill-opacity:1;stroke:#000000;stroke-width:0.28931805px;stroke-linecap:butt;stroke-linejoin:miter;stroke-opacity:1" />
      <path
         inkscape:connector-curvature="0"
         id="path4934-7-7-5-7"
         d="m -70.253726,-5.44797 h 5.188814 v -5.193312 h -5.238136 z"
         style="fill:#ffffff;fill-opacity:1;stroke:#000000;stroke-width:0.28931805px;stroke-linecap:butt;stroke-linejoin:miter;stroke-opacity:1" />
      <path
         inkscape:connector-curvature="0"
         id="path4934-7-0-0-8"
         d="m -98.568976,-5.309481 h 5.188814 v -5.193312 h -5.238136 z"
         style="fill:#ffffff;fill-opacity:1;stroke:#000000;stroke-width:0.28931805px;stroke-linecap:butt;stroke-linejoin:miter;stroke-opacity:1" />
      <path
         inkscape:connector-curvature="0"
         id="path4934-7-7-5-7-4"
         d="m -98.568255,2.295293 h 5.188814 v -5.193312 h -5.238136 z"
         style="fill:#ffffff;fill-opacity:1;stroke:#000000;stroke-width:0.28931805px;stroke-linecap:butt;stroke-linejoin:miter;stroke-opacity:1" />
    </g>
    <g
       id="g1149"
       transform="translate(-164.99149,103.91606)">
      <path
         inkscape:connector-curvature="0"
         id="path955"
         d="m 47.459635,84.270275 h 4.181361 V 75.76581 h -4.134115 z"
         style="fill:#000000;fill-opacity:1;stroke:#000000;stroke-width:0.26458332px;stroke-linecap:butt;stroke-linejoin:miter;stroke-opacity:1" />
      <path
         inkscape:connector-curvature="0"
         id="path955-8"
         d="m 47.521594,71.433847 h 4.181361 V 62.929382 H 47.56884 Z"
         style="fill:#000000;fill-opacity:1;stroke:#000000;stroke-width:0.26458332px;stroke-linecap:butt;stroke-linejoin:miter;stroke-opacity:1" />
      <path
         inkscape:connector-curvature="0"
         id="path955-5"
         d="m 112.41528,85.034364 h 4.18136 v -8.504465 h -4.13411 z"
         style="fill:#000000;fill-opacity:1;stroke:#000000;stroke-width:0.26458332px;stroke-linecap:butt;stroke-linejoin:miter;stroke-opacity:1" />
      <path
         inkscape:connector-curvature="0"
         id="path955-8-9"
         d="m 112.47724,72.197935 h 4.18136 V 63.69347 h -4.13411 z"
         style="fill:#000000;fill-opacity:1;stroke:#000000;stroke-width:0.26458332px;stroke-linecap:butt;stroke-linejoin:miter;stroke-opacity:1" />
      <path
         inkscape:connector-curvature="0"
         id="path955-5-1"
         d="m 105.78291,55.398974 v -4.18136 h -8.504476 v 4.13411 z"
         style="fill:#000000;fill-opacity:1;stroke:#000000;stroke-width:0.26458332px;stroke-linecap:butt;stroke-linejoin:miter;stroke-opacity:1" />
      <path
         inkscape:connector-curvature="0"
         id="path955-8-9-9"
         d="m 92.946474,55.337014 v -4.18136 h -8.50446 v 4.13411 z"
         style="fill:#000000;fill-opacity:1;stroke:#000000;stroke-width:0.26458332px;stroke-linecap:butt;stroke-linejoin:miter;stroke-opacity:1" />
      <path
         inkscape:connector-curvature="0"
         id="path955-5-1-3"
         d="m 80.388354,55.316805 v -4.18136 h -8.50448 v 4.13411 z"
         style="fill:#000000;fill-opacity:1;stroke:#000000;stroke-width:0.26458332px;stroke-linecap:butt;stroke-linejoin:miter;stroke-opacity:1" />
      <path
         inkscape:connector-curvature="0"
         id="path955-8-9-9-4"
         d="m 67.551918,55.254845 v -4.18136 h -8.50446 v 4.13411 z"
         style="fill:#000000;fill-opacity:1;stroke:#000000;stroke-width:0.26458332px;stroke-linecap:butt;stroke-linejoin:miter;stroke-opacity:1" />
      <path
         inkscape:connector-curvature="0"
         id="path955-5-1-6"
         d="m 105.11394,96.948067 v -4.18136 h -8.50448 v 4.13411 z"
         style="fill:#000000;fill-opacity:1;stroke:#000000;stroke-width:0.26458332px;stroke-linecap:butt;stroke-linejoin:miter;stroke-opacity:1" />
      <path
         inkscape:connector-curvature="0"
         id="path955-8-9-9-8"
         d="m 92.277501,96.886107 v -4.18136 H 83.77304 v 4.13411 z"
         style="fill:#000000;fill-opacity:1;stroke:#000000;stroke-width:0.26458332px;stroke-linecap:butt;stroke-linejoin:miter;stroke-opacity:1" />
      <path
         inkscape:connector-curvature="0"
         id="path955-5-1-3-6"
         d="m 79.71938,96.865898 v -4.18136 H 71.2149 v 4.13411 z"
         style="fill:#000000;fill-opacity:1;stroke:#000000;stroke-width:0.26458332px;stroke-linecap:butt;stroke-linejoin:miter;stroke-opacity:1" />
      <path
         inkscape:connector-curvature="0"
         id="path955-8-9-9-4-0"
         d="m 66.882943,96.803938 v -4.18136 h -8.50446 v 4.13411 z"
         style="fill:#000000;fill-opacity:1;stroke:#000000;stroke-width:0.26458332px;stroke-linecap:butt;stroke-linejoin:miter;stroke-opacity:1" />
      <path
         sodipodi:nodetypes="ccccc"
         inkscape:connector-curvature="0"
         id="path1050"
         d="m 54.32974,96.708397 0.09834,-4.016096 c -1.904894,-0.726843 -2.922844,-2.077248 -2.86829,-4.17521 H 47.5465 c -0.311022,4.797086 1.992236,7.634284 6.78324,8.191306 z"
         style="fill:#ff0000;fill-opacity:1;stroke:#ff0000;stroke-width:0.26499999;stroke-linecap:butt;stroke-linejoin:miter;stroke-miterlimit:4;stroke-dasharray:none;stroke-opacity:1" />
      <path
         sodipodi:nodetypes="ccccc"
         inkscape:connector-curvature="0"
         id="path1050-4"
         d="m 54.822472,51.151934 0.0694,4.105815 c -1.296043,-0.07449 -3.038759,1.036854 -3.261523,3.689452 h -4.01329 c -0.30293,-5.043633 3.932451,-7.593033 7.205416,-7.795267 z"
         style="fill:#ff0000;fill-opacity:1;stroke:#ff0000;stroke-width:0.26499999;stroke-linecap:butt;stroke-linejoin:miter;stroke-miterlimit:4;stroke-dasharray:none;stroke-opacity:1" />
      <path
         sodipodi:nodetypes="cccccc"
         inkscape:connector-curvature="0"
         id="path1050-9"
         d="m 109.394,96.737465 -0.0983,-4.016092 c 1.9049,-0.726845 2.92285,-2.077249 2.86829,-4.17521 h 4.314 c 0.31102,4.797092 -2.29294,7.634282 -7.08395,8.191302 z"
         style="fill:#ff0000;fill-opacity:1;stroke:#ff0000;stroke-width:0.26499999;stroke-linecap:butt;stroke-linejoin:miter;stroke-miterlimit:4;stroke-dasharray:none;stroke-opacity:1" />
      <path
         sodipodi:nodetypes="ccccc"
         inkscape:connector-curvature="0"
         id="path1050-4-9"
         d="m 110.26617,51.299186 -0.69094,4.073102 c 1.2785,0.135936 2.73495,1.738356 2.98346,4.082004 h 4.01329 c 0.30293,-5.043633 -3.03285,-7.952872 -6.30581,-8.155106 z"
         style="fill:#ff0000;fill-opacity:1;stroke:#ff0000;stroke-width:0.26499999;stroke-linecap:butt;stroke-linejoin:miter;stroke-miterlimit:4;stroke-dasharray:none;stroke-opacity:1" />
      <path
         sodipodi:nodetypes="ccccccccccc"
         inkscape:connector-curvature="0"
         id="path1121"
         d="m 71.776594,46.950047 h 4.163645 v -5.343342 h 12.467802 v 5.389605 h 4.094249 v -6.846882 c -0.05245,-1.536275 -0.719965,-2.588561 -2.64854,-2.64854 H 74.529227 c -1.604312,0.197821 -2.687119,0.939182 -2.746849,2.746848 z"
         style="fill:#000000;fill-opacity:1;stroke:#000000;stroke-width:0.26499999;stroke-linecap:butt;stroke-linejoin:miter;stroke-miterlimit:4;stroke-dasharray:none;stroke-opacity:1" />
    </g>
    <g
       id="g5759">
      <path
         sodipodi:nodetypes="cccccccccc"
         inkscape:connector-curvature="0"
         id="path5232"
         d="m 58.790842,84.755729 c 0.002,0.728442 0.493462,1.142343 1.393789,1.238923 l 27.411148,-0.30973 c -0.300629,-5.346904 0.157926,-10.314216 3.716766,-13.731386 1.004154,-0.819843 0.911467,-1.603125 0.464595,-2.374601 -2.441182,-2.824078 -5.531269,-4.116457 -8.878941,-4.800822 H 72.367362 c -2.507068,0.310982 -4.957876,0.924792 -7.175423,2.68433 -2.581152,2.677124 -5.073681,5.405945 -5.936501,9.085429 z"
         style="fill:none;fill-opacity:1;stroke:#000000;stroke-width:0.7;stroke-linecap:butt;stroke-linejoin:miter;stroke-opacity:1;stroke-miterlimit:4;stroke-dasharray:none" />
      <path
         sodipodi:nodetypes="ccccccccc"
         inkscape:connector-curvature="0"
         id="path5245"
         d="m 114.96106,86.002852 c 1.06924,0.0517 1.45237,-0.353939 1.38708,-1.058557 l 0.0365,-4.635767 c -0.39365,-5.066628 -3.05472,-8.569524 -9.08901,-9.746057 h -7.738449 c -5.096671,0.848497 -8.441576,3.682329 -9.162026,9.490543 v 4.927783 c -0.0074,0.557215 0.339184,0.83497 0.985558,0.876048 z"
         style="fill:none;fill-opacity:1;stroke:#000000;stroke-width:0.7;stroke-linecap:butt;stroke-linejoin:miter;stroke-opacity:1;stroke-miterlimit:4;stroke-dasharray:none" />
      <circle
         r="8.1820469"
         cy="53.719921"
         cx="77.16819"
         id="path5269"
         style="opacity:1;fill:none;fill-opacity:1;stroke:#000000;stroke-width:0.7;stroke-miterlimit:4;stroke-dasharray:none;stroke-opacity:1" />
      <circle
         r="5.718142"
         cy="63.218327"
         cx="103.26299"
         id="path5269-9"
         style="opacity:1;fill:none;fill-opacity:1;stroke:#000000;stroke-width:0.7;stroke-miterlimit:4;stroke-dasharray:none;stroke-opacity:1" />
    </g>
    <g
       id="g5368"
       transform="translate(-230.43948,-23.952491)">
      <rect
         ry="1.3166631"
         y="86.404976"
         x="38.641232"
         height="3.0221229"
         width="51.027382"
         id="rect5322"
         style="opacity:1;fill:#000000;fill-opacity:1;stroke:#000000;stroke-width:0.39804402;stroke-miterlimit:4;stroke-dasharray:none;stroke-opacity:1" />
      <rect
         ry="1.3166631"
         y="97.060806"
         x="38.641022"
         height="3.0221229"
         width="51.027386"
         id="rect5322-4"
         style="opacity:1;fill:#000000;fill-opacity:1;stroke:#000000;stroke-width:0.39804402;stroke-miterlimit:4;stroke-dasharray:none;stroke-opacity:1" />
      <rect
         ry="1.3166631"
         y="107.57619"
         x="38.510967"
         height="3.0221229"
         width="51.027386"
         id="rect5322-4-5"
         style="opacity:1;fill:#000000;fill-opacity:1;stroke:#000000;stroke-width:0.39804402;stroke-miterlimit:4;stroke-dasharray:none;stroke-opacity:1" />
    </g>
    <g
       id="g5413"
       transform="matrix(0.53231685,0,0,0.53231685,-67.060616,12.729761)">
      <path
         sodipodi:nodetypes="cccccscccc"
         inkscape:connector-curvature="0"
         id="path5392"
         d="m 35.972808,72.931929 c -1.08607,0.008 -1.773074,0.188432 -1.764544,1.01876 v 11.811725 c -0.01089,1.05222 0.60178,1.350968 1.411553,1.411552 l 20.118871,-0.06097 c 0.436487,0.0072 0.747595,-0.100961 0.93733,-0.320778 0.167112,-0.193607 0.24007,-0.473834 0.221611,-0.838165 l -0.01825,-11.990935 c 0.0045,-0.929812 -0.619197,-0.968434 -1.473771,-0.971868 z"
         style="fill:#ffffff;fill-opacity:1;stroke:none;stroke-width:0.26499999;stroke-linecap:butt;stroke-linejoin:miter;stroke-miterlimit:4;stroke-dasharray:none;stroke-opacity:1" />
      <path
         sodipodi:nodetypes="ccccccccccc"
         inkscape:connector-curvature="0"
         id="path5394"
         d="m 36.885361,87.15862 v 4.334621 c -2.794248,0.332635 -5.207889,0.91736 -5.384059,2.984047 v 41.292982 c 0.07359,2.08714 0.804887,3.60531 3.038798,3.8236 h 22.074639 c 1.977635,-0.0334 2.929203,-1.19352 3.152868,-3.15287 V 95.184774 c -0.204158,-2.14732 -1.963585,-3.457187 -5.745448,-3.67805 l -0.0032,-4.394302 z"
         style="fill:#ffb238;fill-opacity:1;stroke:none;stroke-width:0.26458332px;stroke-linecap:butt;stroke-linejoin:miter;stroke-opacity:1" />
      <path
         inkscape:connector-curvature="0"
         id="path5396"
         d="m 31.515076,111.57468 h 28.243405 v -9.16609 h -28.25946 z"
         style="fill:#db1016;fill-opacity:1;stroke:none;stroke-width:0.26458332px;stroke-linecap:butt;stroke-linejoin:miter;stroke-opacity:1" />
      <path
         sodipodi:nodetypes="ccccc"
         inkscape:connector-curvature="0"
         id="path5398"
         d="m 31.51803,130.19458 -0.0319,-18.6199 h 28.277501 l 0.0091,18.51039 z"
         style="fill:#ffffff;fill-opacity:1;stroke:none;stroke-width:0.26474297px;stroke-linecap:butt;stroke-linejoin:miter;stroke-opacity:1" />
    </g>
    <g
       id="g913"
       transform="matrix(0.53231685,0,0,0.53231685,6.931672,4.9553033)"
       inkscape:export-xdpi="96"
       inkscape:export-ydpi="96"
       style="fill:none">
      <path
         style="fill:none;fill-opacity:1;stroke:#000000;stroke-width:0.93929023;stroke-linecap:butt;stroke-linejoin:miter;stroke-miterlimit:4;stroke-dasharray:none;stroke-opacity:1"
         d="m 36.885361,87.15862 v 4.334621 c -2.794248,0.332635 -5.207889,0.91736 -5.384059,2.984047 v 41.292982 c 0.07359,2.08714 0.804887,3.60531 3.038798,3.8236 h 22.074639 c 1.977635,-0.0334 2.929203,-1.19352 3.152868,-3.15287 V 95.184774 c -0.204158,-2.14732 -1.963585,-3.457187 -5.745448,-3.67805 l -0.0032,-4.394302 z"
         id="path5394-2"
         inkscape:connector-curvature="0"
         sodipodi:nodetypes="ccccccccccc" />
      <g
         id="g906"
         style="fill:none">
        <path
           sodipodi:nodetypes="cccccscccc"
           inkscape:connector-curvature="0"
           id="path5392-3"
           d="m 35.972808,72.931929 c -1.08607,0.008 -1.773074,0.188432 -1.764544,1.01876 v 11.811725 c -0.01089,1.05222 0.60178,1.350968 1.411553,1.411552 l 20.118871,-0.06097 c 0.436487,0.0072 0.747595,-0.100961 0.93733,-0.320778 0.167112,-0.193607 0.24007,-0.473834 0.221611,-0.838165 l -0.01825,-11.990935 c 0.0045,-0.929812 -0.619197,-0.968434 -1.473771,-0.971868 z"
           style="fill:none;fill-opacity:1;stroke:#000000;stroke-width:0.93929023;stroke-linecap:butt;stroke-linejoin:miter;stroke-miterlimit:4;stroke-dasharray:none;stroke-opacity:1" />
        <path
           inkscape:connector-curvature="0"
           id="path5396-7"
           d="m 31.515076,111.57468 h 28.243405 v -9.16609 h -28.25946 z"
           style="fill:none;fill-opacity:1;stroke:#000000;stroke-width:0.93929023;stroke-linecap:butt;stroke-linejoin:miter;stroke-miterlimit:4;stroke-dasharray:none;stroke-opacity:1" />
        <path
           sodipodi:nodetypes="ccccc"
           inkscape:connector-curvature="0"
           id="path5398-7"
           d="m 31.51803,130.19458 -0.0319,-18.6199 h 28.277501 l 0.0091,18.51039 z"
           style="fill:none;fill-opacity:1;stroke:#000000;stroke-width:0.93929023;stroke-linecap:butt;stroke-linejoin:miter;stroke-miterlimit:4;stroke-dasharray:none;stroke-opacity:1" />
      </g>
    </g>
  </g>
</svg>
